<svg width="29" height="29" viewBox="0 0 29 29" fill="none" xmlns="http://www.w3.org/2000/svg">
<path d="M20.625 27.625H7.10825C6.22477 27.625 5.78303 27.625 5.57848 27.4503C5.40099 27.2987 5.3068 27.0713 5.32511 26.8386C5.34622 26.5704 5.65858 26.2581 6.28329 25.6334L18.6834 13.2332C19.2609 12.6557 19.5497 12.367 19.8827 12.2588C20.1756 12.1636 20.4911 12.1636 20.784 12.2588C21.117 12.367 21.4057 12.6557 21.9832 13.2332L27.625 18.875V20.625M20.625 27.625C23.0752 27.625 24.3003 27.625 25.2362 27.1482C26.0594 26.7287 26.7287 26.0594 27.1482 25.2362C27.625 24.3003 27.625 23.0752 27.625 20.625M20.625 27.625H8.375C5.92477 27.625 4.69966 27.625 3.76379 27.1482C2.94058 26.7287 2.27129 26.0594 1.85185 25.2362C1.375 24.3003 1.375 23.0752 1.375 20.625V8.375C1.375 5.92477 1.375 4.69966 1.85185 3.76379C2.27129 2.94058 2.94058 2.27129 3.76379 1.85185C4.69966 1.375 5.92477 1.375 8.375 1.375H20.625C23.0752 1.375 24.3003 1.375 25.2362 1.85185C26.0594 2.27129 26.7287 2.94058 27.1482 3.76379C27.625 4.69966 27.625 5.92477 27.625 8.375V20.625M12.3125 9.39583C12.3125 11.0067 11.0067 12.3125 9.39583 12.3125C7.785 12.3125 6.47917 11.0067 6.47917 9.39583C6.47917 7.785 7.785 6.47917 9.39583 6.47917C11.0067 6.47917 12.3125 7.785 12.3125 9.39583Z" stroke="white" stroke-width="2.5" stroke-linecap="round" stroke-linejoin="round"/>
</svg>
