<svg width="38" height="38" viewBox="0 0 38 38" fill="none" xmlns="http://www.w3.org/2000/svg">
<path d="M33.2503 25.333V11.3997C33.2503 9.62617 33.2503 8.73942 32.9052 8.06204C32.6016 7.46619 32.1171 6.98175 31.5213 6.67815C30.8439 6.33301 29.9572 6.33301 28.1837 6.33301H9.81699C8.04349 6.33301 7.15674 6.33301 6.47936 6.67815C5.88351 6.98175 5.39907 7.46619 5.09547 8.06204C4.75033 8.73942 4.75033 9.62617 4.75033 11.3997V25.333M7.38921 31.6663H30.6114C31.5931 31.6663 32.0839 31.6663 32.4866 31.5584C33.5794 31.2656 34.4329 30.4121 34.7258 29.3193C34.8337 28.9166 34.8337 28.4258 34.8337 27.4441C34.8337 26.9533 34.8337 26.7079 34.7797 26.5065C34.6333 25.9601 34.2065 25.5334 33.6601 25.387C33.4588 25.333 33.2134 25.333 32.7225 25.333H5.2781C4.78728 25.333 4.54188 25.333 4.34053 25.387C3.79413 25.5334 3.36735 25.9601 3.22094 26.5065C3.16699 26.7079 3.16699 26.9533 3.16699 27.4441C3.16699 28.4258 3.16699 28.9166 3.27489 29.3193C3.56771 30.4121 4.42127 31.2656 5.51407 31.5584C5.91676 31.6663 6.40758 31.6663 7.38921 31.6663Z" stroke="white" stroke-width="2.5" stroke-linecap="round" stroke-linejoin="round"/>
</svg>
