<svg width="38" height="38" viewBox="0 0 38 38" fill="none" xmlns="http://www.w3.org/2000/svg">
<path d="M23.7503 14.2503H23.7662M14.2503 14.2503H14.2662M34.8337 19.0003C34.8337 27.7448 27.7448 34.8337 19.0003 34.8337C10.2558 34.8337 3.16699 27.7448 3.16699 19.0003C3.16699 10.2558 10.2558 3.16699 19.0003 3.16699C27.7448 3.16699 34.8337 10.2558 34.8337 19.0003ZM24.542 14.2503C24.542 14.6876 24.1875 15.042 23.7503 15.042C23.3131 15.042 22.9587 14.6876 22.9587 14.2503C22.9587 13.8131 23.3131 13.4587 23.7503 13.4587C24.1875 13.4587 24.542 13.8131 24.542 14.2503ZM15.042 14.2503C15.042 14.6876 14.6876 15.042 14.2503 15.042C13.8131 15.042 13.4587 14.6876 13.4587 14.2503C13.4587 13.8131 13.8131 13.4587 14.2503 13.4587C14.6876 13.4587 15.042 13.8131 15.042 14.2503ZM19.0003 27.7087C22.9594 27.7087 26.1253 24.8064 26.1253 22.167H11.8753C11.8753 24.8064 15.0412 27.7087 19.0003 27.7087Z" stroke="white" stroke-width="2.5" stroke-linecap="round" stroke-linejoin="round"/>
</svg>
